HIERARCHY
ROOT hip
{
	OFFSET 0.000000 0.000000 0.000000 
	CHANNELS 6 Xposition Yposition Zposition Xrotation Zrotation Yrotation
	JOINT abdomen
	{
		OFFSET 0.000000 3.402643 0.000000 
		CHANNELS 3 Xrotation Zrotation Yrotation
		JOINT chest
		{
			OFFSET 0.000000 8.438565 -0.680529 
			CHANNELS 3 Xrotation Zrotation Yrotation
			JOINT neck
			{
				OFFSET 0.000000 10.207942 -0.272212 
				CHANNELS 3 Xrotation Zrotation Yrotation
				JOINT head
				{
					OFFSET 0.000000 3.130431 0.000000 
					CHANNELS 3 Xrotation Zrotation Yrotation
					End Site
					{
						OFFSET 0.000000 3.130435 0.000000 
					}
				}
			}
			JOINT lCollar
			{
				OFFSET 3.470700 6.669187 -0.816635 
				CHANNELS 3 Yrotation Zrotation Xrotation
				JOINT lShldr
				{
					OFFSET 3.198488 0.000000 0.000000 
					CHANNELS 3 Zrotation Yrotation Xrotation
					JOINT lForeArm
					{
						OFFSET 10.139888 0.000000 0.000000 
						CHANNELS 3 Yrotation Zrotation Xrotation
						JOINT lHand
						{
							OFFSET 8.370511 0.000000 0.000000 
							CHANNELS 3 Zrotation Yrotation Xrotation
							End Site
							{
								OFFSET 4.083176 0.000000 0.000000 
							}
						}
					}
				}
			}
			JOINT rCollar
			{
				OFFSET -3.470700 6.669187 -0.816635 
				CHANNELS 3 Yrotation Zrotation Xrotation
				JOINT rShldr
				{
					OFFSET -3.198488 0.000000 0.000000 
					CHANNELS 3 Zrotation Yrotation Xrotation
					JOINT rForeArm
					{
						OFFSET -10.139888 0.000000 0.000000 
						CHANNELS 3 Yrotation Zrotation Xrotation
						JOINT rHand
						{
							OFFSET -8.370511 0.000000 0.000000 
							CHANNELS 3 Zrotation Yrotation Xrotation
							End Site
							{
								OFFSET -4.083176 0.000000 0.000000 
							}
						}
					}
				}
			}
		}
	}
	JOINT lThigh
	{
		OFFSET 5.308129 -1.633274 1.361059 
		CHANNELS 3 Xrotation Zrotation Yrotation
		JOINT lShin
		{
			OFFSET -2.041588 -20.007561 0.000000 
			CHANNELS 3 Xrotation Zrotation Yrotation
			JOINT lFoot
			{
				OFFSET 0.000000 -19.190928 -1.224953 
				CHANNELS 3 Xrotation Yrotation Zrotation
				End Site
				{
					OFFSET 0.000000 -2.449906 4.627600 
				}
			}
		}
	}
	JOINT rThigh
	{
		OFFSET -5.308129 -1.633274 1.361059 
		CHANNELS 3 Xrotation Zrotation Yrotation
		JOINT rShin
		{
			OFFSET 2.041588 -20.007561 0.000000 
			CHANNELS 3 Xrotation Zrotation Yrotation
			JOINT rFoot
			{
				OFFSET 0.000000 -19.190928 -1.224953 
				CHANNELS 3 Xrotation Yrotation Zrotation
				End Site
				{
					OFFSET 0.000000 -2.449906 4.627600 
				}
			}
		}
	}
}
MOTION
Frames: 17
Frame Time: 0.016667
-0.173617 48.632587 0.484971 -2.795137 -1.053177 -3.066965 0.000000 0.000000 0.000000 6.455655 -3.231687 -1.223166 15.305945 2.481514 4.799717 -3.960881 2.362773 -5.336342 3.720284 -25.000000 5.884144 -56.240112 5.221052 1.148247 -23.035891 -2.260610 27.062931 -5.182011 2.105069 16.529240 2.178352 24.994305 6.739475 51.208084 -2.942643 -1.619433 18.072317 1.589162 20.439621 9.443302 -3.798953 19.673496 -5.143031 7.767807 1.244609 16.784327 0.387364 1.036086 -6.110927 -0.663761 -6.570159 -2.176581 -8.576237 -5.052900 17.212734 -1.572007 -2.027511 -8.160865 -0.258607 9.860161 
-0.179258 48.634132 0.453821 -2.818821 -0.994721 -3.008376 0.000000 0.000000 0.000000 6.448646 -3.231628 -1.271916 15.354276 2.501154 4.750937 -3.883530 2.304760 -5.248134 3.724829 -25.000000 5.897104 -56.299160 5.211427 1.158300 -23.118580 -2.338989 27.124922 -5.128873 2.202903 16.844250 2.169882 24.996834 6.783046 51.217861 -2.942367 -1.619934 18.097635 1.574620 20.427816 9.384128 -3.789870 19.685270 -5.122205 7.678335 1.223042 16.646578 0.419464 1.035350 -5.998235 -0.685657 -6.597990 -2.342983 -8.657301 -4.967058 17.477791 -1.542770 -1.968054 -8.258056 -0.444454 9.831107 
-0.204802 48.632351 0.402555 -2.969063 -0.799843 -2.773712 0.000000 0.000000 0.000000 6.535284 -3.241196 -1.418719 15.427215 2.560361 4.526123 -3.671467 2.111042 -5.012832 3.611310 -25.000000 5.928181 -56.204563 5.152637 1.129298 -23.331823 -2.517990 27.330122 -5.185246 2.506156 17.129339 2.126422 24.993000 6.796256 51.225674 -2.928247 -1.556434 18.139219 1.644205 20.365072 9.354125 -3.812987 19.810484 -4.957279 7.464885 0.962701 16.335558 0.485088 1.132551 -5.758067 -0.730224 -6.706295 -2.361690 -8.858232 -5.054662 17.757591 -1.474326 -1.951512 -8.393884 -0.626677 9.783013 
-0.216370 48.626312 0.402435 -3.064818 -0.673120 -2.627231 0.000000 0.000000 0.000000 6.593742 -3.289791 -1.565529 15.476377 2.570131 4.516367 -3.595388 2.043096 -4.964043 3.583429 -25.000000 5.884628 -56.261421 5.186273 1.145643 -23.400938 -2.565616 27.414845 -4.947439 2.727395 17.916809 2.122500 24.995138 6.826857 51.225346 -2.916019 -1.541207 18.167128 1.648271 20.343132 9.390342 -3.797892 19.882042 -4.859489 7.308696 0.840910 16.256350 0.497494 1.117347 -5.717214 -0.752693 -6.693661 -2.440706 -9.047444 -4.954294 18.000546 -1.415799 -2.024735 -8.473587 -0.726229 9.782070 
-0.216059 48.622086 0.390712 -3.110485 -0.556111 -2.500166 0.000000 0.000000 0.000000 6.523205 -3.250773 -1.545469 15.609767 2.648744 4.311508 -3.457067 1.858678 -4.807221 3.498387 -25.000000 5.941541 -56.153194 5.186809 1.168892 -23.565733 -2.697514 27.649370 -4.885432 2.938776 18.065084 2.002455 24.999491 6.923444 51.292488 -2.885168 -1.492860 18.217400 1.671291 20.411659 9.270951 -3.808945 20.009693 -4.803814 7.195796 0.710705 16.165192 0.455703 1.251848 -5.659188 -0.834127 -6.727459 -2.479502 -9.154560 -4.879827 18.149303 -1.415826 -2.069504 -8.524827 -0.891284 9.803428 
-0.217149 48.612915 0.399603 -3.194290 -0.448833 -2.373127 0.000000 0.000000 0.000000 6.590712 -3.289600 -1.682523 15.650301 2.668221 4.311510 -3.402405 1.800367 -4.777630 3.485956 -25.000000 5.863128 -56.016056 5.178567 1.189358 -23.515038 -2.916281 27.698238 -4.705989 2.970251 18.252775 1.999831 24.991892 6.958175 51.281776 -2.888448 -1.464929 18.250200 1.697073 20.416666 9.231531 -3.830733 20.036060 -4.735415 7.088166 0.609496 16.167307 0.416735 1.276185 -5.668362 -0.878968 -6.736638 -2.431435 -9.234617 -4.824980 18.219091 -1.435422 -2.138687 -8.492270 -0.966846 9.810458 
-0.250133 48.605938 0.410242 -3.365188 -0.351295 -2.236406 0.000000 0.000000 0.000000 6.636714 -3.231063 -1.663021 15.799782 2.747048 4.047676 -3.360888 1.596403 -4.601357 3.370608 -25.000000 5.963780 -56.045086 5.181840 1.200259 -23.564663 -2.854042 27.912949 -4.638695 2.934731 18.119709 1.864896 24.993397 7.046034 51.298889 -2.869601 -1.380547 18.304386 1.704985 20.466280 9.044959 -3.854012 20.142559 -4.550604 7.069625 0.715493 16.152195 0.367973 1.104881 -5.702181 -0.978850 -6.759881 -2.294868 -9.294819 -4.809681 18.253155 -1.435251 -2.254885 -8.546824 -1.063089 9.810026 
-0.272563 48.593109 0.412524 -3.419467 -0.224457 -2.109397 0.000000 0.000000 0.000000 6.642909 -3.289499 -1.741580 15.812253 2.805596 4.018891 -3.335610 1.528285 -4.591332 3.347268 -25.000000 5.929049 -56.042080 5.216806 1.271626 -23.588909 -2.879307 27.934153 -4.547681 2.905860 18.026567 1.791596 24.997477 7.077044 51.298004 -2.852805 -1.343476 18.324911 1.733487 20.463135 8.967571 -3.836241 20.205544 -4.526833 7.004808 0.703386 16.147438 0.321775 0.953067 -5.696030 -0.948225 -6.757036 -2.275161 -9.402697 -4.795171 18.332106 -1.457901 -2.314556 -8.570872 -1.107052 9.854688 
-0.313112 48.579651 0.394588 -3.501083 -0.136635 -2.001971 0.000000 0.000000 0.000000 6.629736 -3.250522 -1.702021 15.863365 2.815899 3.852599 -3.309650 1.489609 -4.464172 3.234926 -25.000000 5.920538 -55.929588 5.292670 1.322321 -23.705149 -2.939368 27.879766 -4.715436 2.905988 17.885664 1.646944 24.997402 7.164945 51.276554 -2.747931 -1.226695 18.296198 1.720027 20.550833 8.853292 -3.745298 20.468727 -4.530504 7.068754 0.842977 16.242390 0.153007 0.801840 -5.791706 -1.082105 -6.776024 -2.256040 -9.441292 -4.638054 18.379057 -1.452961 -2.497947 -8.605262 -1.197233 9.834978 
-0.320103 48.575611 0.392232 -3.659174 -0.087842 -1.914075 0.000000 0.000000 0.000000 6.758907 -3.250455 -1.741575 15.882915 2.874622 3.774576 -3.292324 1.402041 -4.434893 3.204718 -25.000000 5.920622 -55.905254 5.370456 1.365986 -23.778929 -2.958923 27.846035 -4.702241 2.891189 17.779236 1.578924 24.989649 7.165330 51.304127 -2.661854 -1.121381 18.298615 1.704566 20.625837 8.848927 -3.752815 20.695072 -4.380527 7.053656 0.899696 16.268044 0.136259 0.701286 -5.803387 -1.117431 -6.791816 -2.157993 -9.448846 -4.493476 18.471359 -1.464659 -2.623928 -8.635163 -1.343281 9.853745 
-0.336881 48.565781 0.373323 -3.787185 -0.058564 -1.835946 0.000000 0.000000 0.000000 6.814827 -3.162605 -1.741021 15.935696 2.845641 3.696059 -3.268453 1.382785 -4.317503 3.173488 -25.000000 5.820426 -56.090477 5.531698 1.500424 -24.055958 -2.856553 27.644220 -4.787406 3.032305 17.882099 1.514115 24.991329 7.152732 51.195229 -2.636347 -1.050885 18.276783 1.737530 20.748634 8.875240 -3.763286 20.871990 -4.314021 7.104994 1.234789 16.373318 0.113751 0.382506 -5.887741 -1.188248 -6.804204 -2.107986 -9.415097 -4.324851 18.547371 -1.474382 -2.828202 -8.671948 -1.377969 9.859797 
-0.338776 48.563675 0.385463 -3.846425 -0.039043 -1.806647 0.000000 0.000000 0.000000 6.845139 -3.143034 -1.770273 15.944829 2.835896 3.696059 -3.234797 1.334146 -4.288219 3.174093 -25.000000 5.802725 -56.087254 5.593915 1.495063 -24.414986 -2.842837 27.474560 -4.898347 3.247609 18.016506 1.511547 24.997782 7.113318 51.127045 -2.558170 -1.011395 18.228695 1.809512 20.863953 8.840885 -3.796830 20.955681 -4.247300 7.117492 1.283865 16.401678 0.074879 0.347273 -5.956089 -1.239049 -6.786169 -2.050145 -9.438746 -4.090419 18.567703 -1.415851 -2.975156 -8.681000 -1.475149 9.868675 
-0.347293 48.549210 0.381872 -3.914485 -0.048804 -1.796883 0.000000 0.000000 0.000000 6.831748 -3.025902 -1.770268 15.883854 2.875190 3.598527 -3.117462 1.256539 -4.102502 3.136021 -25.000000 5.737346 -56.185650 5.758984 1.523303 -24.701962 -2.877775 27.360735 -4.755240 3.238715 18.089943 1.507153 24.999445 7.004467 51.028057 -2.558106 -0.958254 18.147341 1.876929 20.945734 8.867518 -3.807398 21.072535 -4.315003 7.233828 1.523309 16.687456 -0.032532 0.137350 -6.138923 -1.326340 -6.777628 -1.982137 -9.380933 -3.891521 18.576523 -1.396438 -3.157406 -8.663969 -1.497154 9.879322 
-0.355810 48.541664 0.383532 -3.914178 -0.058565 -1.796884 0.000000 0.000000 0.000000 6.800733 -2.986874 -1.760512 15.881165 2.855788 3.569265 -3.098024 1.276113 -4.043922 3.106912 -25.000000 5.737427 -56.171379 5.850677 1.492700 -25.101236 -2.925591 27.222645 -4.811619 3.427614 18.237463 1.496819 24.996773 6.982746 51.018150 -2.526112 -0.933584 18.114471 1.853895 20.950380 8.940175 -3.835610 21.127375 -4.381363 7.308645 1.515636 16.815788 -0.117761 0.170046 -6.231516 -1.343724 -6.778000 -2.011467 -9.331289 -3.800106 18.607637 -1.415873 -3.237421 -8.666977 -1.519966 9.890403 
-0.334130 48.509487 0.367142 -4.020105 -0.107370 -1.777359 0.000000 0.000000 0.000000 6.808481 -2.889233 -1.780006 15.928043 2.855909 3.530251 -3.225802 1.208208 -3.848448 3.095390 -25.000000 5.798812 -56.252533 5.980065 1.486144 -25.574362 -2.954829 27.070162 -4.709187 3.384353 18.352026 1.434573 24.992115 7.017796 50.980957 -2.381821 -0.923537 17.922878 1.864198 20.971481 9.018707 -3.847771 21.253874 -4.638743 7.499970 1.462101 17.499418 -0.373882 0.215271 -6.577327 -1.443618 -6.717114 -1.737307 -9.190565 -3.579406 18.400209 -1.415950 -3.438112 -8.659039 -1.576895 9.885242 
-0.348048 48.495094 0.369342 -4.048266 -0.146416 -1.748066 0.000000 0.000000 0.000000 6.807317 -2.820877 -1.799503 15.956254 2.846192 3.520011 -3.447536 1.227969 -3.653178 3.123283 -25.000000 5.842390 -56.307301 6.057280 1.472679 -26.090935 -2.960502 26.908777 -4.778625 3.657093 18.461859 1.410588 24.990187 7.026745 50.971901 -2.333190 -0.924944 17.940891 1.796791 20.999563 9.163021 -3.934017 21.348082 -4.753771 7.652831 1.408113 17.817902 -0.508231 0.173442 -6.766881 -1.465988 -6.669737 -1.670127 -9.148704 -3.527392 18.380857 -1.456030 -3.522465 -8.635601 -1.586308 9.923267 
-0.337710 48.452477 0.344690 -4.131957 -0.302610 -1.640654 0.000000 0.000000 0.000000 6.846203 -2.684093 -1.887270 15.946602 2.855968 3.510258 -3.578928 1.189164 -3.516286 3.133478 -25.000000 5.864193 -56.438580 6.171603 1.449478 -26.674713 -3.011863 26.754688 -4.738880 3.499396 18.468031 1.378888 24.993517 6.983345 50.924992 -2.161568 -0.911930 17.731110 1.783983 21.070383 9.170897 -3.966827 21.392111 -5.445398 8.119175 1.231443 19.147219 -1.025846 -0.166709 -7.319153 -1.308770 -6.468715 -1.405853 -8.998649 -3.425031 18.139706 -1.386598 -3.723768 -8.583852 -1.566466 9.834984 
